<?xml version="1.0" encoding="UTF-8" standalone="no"?>
<svg
   xmlns:dc="http://purl.org/dc/elements/1.1/"
   xmlns:cc="http://creativecommons.org/ns#"
   xmlns:rdf="http://www.w3.org/1999/02/22-rdf-syntax-ns#"
   xmlns:svg="http://www.w3.org/2000/svg"
   xmlns="http://www.w3.org/2000/svg"
   xmlns:sodipodi="http://sodipodi.sourceforge.net/DTD/sodipodi-0.dtd"
   xmlns:inkscape="http://www.inkscape.org/namespaces/inkscape"
   width="50"
   height="50"
   viewBox="0 0 50 50"
   version="1.1"
   id="svg89"
   inkscape:version="1.0.1 (c497b03c, 2020-09-10)"
   sodipodi:docname="abbot.svg">
  <defs
     id="defs83" />
  <sodipodi:namedview
     id="base"
     pagecolor="#ffffff"
     bordercolor="#666666"
     borderopacity="1.0"
     inkscape:pageopacity="0.0"
     inkscape:pageshadow="2"
     inkscape:zoom="13.84"
     inkscape:cx="25"
     inkscape:cy="25"
     inkscape:document-units="px"
     inkscape:current-layer="layer1"
     inkscape:document-rotation="0"
     showgrid="false"
     units="px"
     inkscape:object-paths="true"
     inkscape:snap-intersection-paths="true"
     inkscape:snap-smooth-nodes="true"
     inkscape:snap-midpoints="true"
     inkscape:snap-object-midpoints="true"
     inkscape:snap-center="true"
     inkscape:snap-bbox="true"
     inkscape:bbox-paths="true"
     inkscape:bbox-nodes="true"
     inkscape:snap-bbox-midpoints="true"
     inkscape:snap-bbox-edge-midpoints="true"
     inkscape:window-width="1440"
     inkscape:window-height="900"
     inkscape:window-x="0"
     inkscape:window-y="0"
     inkscape:window-maximized="0" />
  <metadata
     id="metadata86">
    <rdf:RDF>
      <cc:Work
         rdf:about="">
        <dc:format>image/svg+xml</dc:format>
        <dc:type
           rdf:resource="http://purl.org/dc/dcmitype/StillImage" />
        <dc:title></dc:title>
      </cc:Work>
    </rdf:RDF>
  </metadata>
  <g
     inkscape:label="Layer 1"
     inkscape:groupmode="layer"
     id="layer1">
    <path
       style="fill:none;stroke:#000000;stroke-width:0.275055px;stroke-linecap:butt;stroke-linejoin:miter;stroke-opacity:1"
       d="m 35.348069,48.830709 6.027217,-0.15254 c 0.921873,0 1.084719,-0.549127 1.449589,-1.296996 0.210368,-0.511061 0.126698,-1.207636 -0.07259,-1.935264 -0.316121,-1.179886 -0.828928,-2.171276 -1.453312,-3.252744 -0.732702,-1.269114 -1.185456,-2.400608 -2.316723,-3.531871 -1.362828,-1.362847 -2.001509,-2.122039 -3.176421,-3.029437 -0.148543,-0.279744 -0.172688,-0.55949 0.15259,-0.839234 1.761076,-0.928501 4.382336,-1.20644 5.41687,-1.983643 0.393836,-0.3887 0.870302,-0.738309 1.068114,-1.449585 0.107385,-0.574547 0.165176,-1.224781 -0.228885,-1.907349 -0.461542,-0.79942 -1.992261,-1.371942 -3.051755,-1.983642 0,0 -2.538147,-1.319768 -4.196168,-1.525879 -1.464205,-0.249137 -2.064388,-0.25587 -4.057396,-0.285957 0.514753,-0.891579 0.458462,-1.083693 0.816904,-1.704533 0.582983,-1.009756 0.456261,-2.314573 -0.01862,-3.503916 -0.392151,-0.97434 -0.602858,-1.089253 -1.166738,-1.648701 -0.420661,-0.419602 -0.648286,-0.983902 -0.241906,-1.687773 1.793963,-2.1766 3.642126,-6.390474 3.675929,-7.9537886 0,-0.9126476 -7.673613,-8.06483 -8.97477,-8.06483 -1.301157,0 -8.97477,7.1521824 -8.97477,8.06483 0.03381,1.5633146 1.881966,5.7771866 3.675928,7.9537876 0.406382,0.703871 0.178752,1.268171 -0.241904,1.687773 -0.563883,0.559447 -0.77459,0.674361 -1.166741,1.648701 -0.474871,1.189343 -0.601594,2.494159 -0.0186,3.503915 0.358447,0.620841 0.30215,0.812954 0.816905,1.704534 -1.993027,0.03009 -2.59321,0.03681 -4.057418,0.285955 -1.658016,0.206113 -4.196162,1.52588 -4.196162,1.52588 -1.0594938,0.6117 -2.5902113,1.184222 -3.0517563,1.983643 -0.394081,0.682567 -0.3362928,1.332802 -0.2288852,1.907349 0.1978195,0.711275 0.6742795,1.060883 1.0681155,1.449584 1.0345337,0.777203 3.655795,1.055142 5.41687,1.983643 0.325278,0.279742 0.301133,0.559489 0.15259,0.839234 -1.174911,0.9074 -1.813589,1.666592 -3.176429,3.029427 -1.1312662,1.131264 -1.5840222,2.262757 -2.3167358,3.531853 -0.6243851,1.081467 -1.1371598,2.072857 -1.4533033,3.252725 -0.1993032,0.727628 -0.2829268,1.424199 -0.072574,1.935264 0.3648694,0.747873 0.5277175,1.296995 1.4495851,1.296995 l 6.027218,0.152541 10.396438,0.07631 z"
       id="path105"
       sodipodi:nodetypes="ccccccccccccccccccccccccccccccccccccccccc" />
  </g>
</svg>
