<?xml version="1.0" encoding="UTF-8" standalone="no"?>
<svg
   xmlns:dc="http://purl.org/dc/elements/1.1/"
   xmlns:cc="http://creativecommons.org/ns#"
   xmlns:rdf="http://www.w3.org/1999/02/22-rdf-syntax-ns#"
   xmlns:svg="http://www.w3.org/2000/svg"
   xmlns="http://www.w3.org/2000/svg"
   xmlns:sodipodi="http://sodipodi.sourceforge.net/DTD/sodipodi-0.dtd"
   xmlns:inkscape="http://www.inkscape.org/namespaces/inkscape"
   version="1.1"
   id="svg2"
   width="50"
   height="50"
   viewBox="0 0 50 50"
   sodipodi:docname="carcassonneLogo.svg"
   inkscape:version="1.0.1 (c497b03c, 2020-09-10)">
  <metadata
     id="metadata8">
    <rdf:RDF>
      <cc:Work
         rdf:about="">
        <dc:format>image/svg+xml</dc:format>
        <dc:type
           rdf:resource="http://purl.org/dc/dcmitype/StillImage" />
        <dc:title></dc:title>
      </cc:Work>
    </rdf:RDF>
  </metadata>
  <defs
     id="defs6" />
  <sodipodi:namedview
     pagecolor="#ffffff"
     bordercolor="#666666"
     borderopacity="1"
     objecttolerance="10"
     gridtolerance="10"
     guidetolerance="10"
     inkscape:pageopacity="0"
     inkscape:pageshadow="2"
     inkscape:window-width="1440"
     inkscape:window-height="900"
     id="namedview4"
     showgrid="false"
     inkscape:zoom="13.84"
     inkscape:cx="25"
     inkscape:cy="25"
     inkscape:window-x="0"
     inkscape:window-y="0"
     inkscape:window-maximized="0"
     inkscape:current-layer="svg2"
     inkscape:document-rotation="0" />
  <path
     style="opacity:1;fill:#0095ff;fill-opacity:1;fill-rule:nonzero;stroke:#251c47;stroke-width:0.9;stroke-linecap:round;stroke-linejoin:miter;stroke-miterlimit:4;stroke-dasharray:none;stroke-dashoffset:0;stroke-opacity:1;paint-order:fill markers stroke"
     d="m 26.7534,40.725049 c 0.46526,1.04936 0.88969,1.73251 1.36535,3.05796 0.427,1.17563 0.8228,2.21155 1.59326,3.49122 0.41451,0.436 0.86197,0.85223 1.57297,1.11034 3.1812,0.42498 6.25016,0.0643 9.37469,0.0925 1.52478,0.0736 3.24662,0.0481 4.87459,-0.0925 0.48419,-0.15048 0.94569,-0.6815 0.96813,-1.50301 0.12935,-0.62315 0.0905,-1.24558 -0.13538,-2.10558 -0.33624,-1.10834 -0.85461,-2.62292 -1.29084,-3.73715 -0.70464,-1.75802 -1.34565,-3.1099 -2.41027,-4.86793 -1.56044,-2.45758 -2.80133,-4.97906 -4.07123,-7.49474 -0.32718,-0.71552 -0.55393,-1.44537 -0.46263,-2.22067 0.0183,-0.40779 0.12714,-0.78844 0.74022,-1.01781 0.9768,-0.31859 2.21508,-0.37569 3.42353,-0.46264 1.58563,0.001 3.0669,-0.51857 4.53385,-1.11033 0.77863,-0.40503 1.5431,-0.83129 1.85056,-1.94308 0.25315,-0.77863 1.2e-4,-1.50102 -0.27758,-2.22067 -0.58786,-0.91127 -1.30559,-1.76687 -2.3132,-2.49825 -1.37172,-1.0542 -3.22647,-1.99061 -4.69392,-2.62227 -1.22171,-0.5033 -2.44547,-1.00456 -3.7261,-1.44895 -1.5856,-0.65611 -3.18362,-1.2223 -4.81145,-1.57297 -0.39729,-0.811857 -0.1516,-2.8033702 -1.33824,-5.8901232 -0.49309,-0.992975 -0.8397,-1.963458 -1.99275,-2.900014 -1.497,-1.156905 -2.5781,-1.36308 -4.52696,-1.36308 -1.94886,0 -3.02995,0.206175 -4.52695,1.36308 -1.15306,0.936556 -1.49967,1.907039 -1.99276,2.900014 -1.18664,3.086753 -0.94094,5.0782662 -1.33824,5.8901232 -1.62783,0.35067 -3.22585,0.91686 -4.81145,1.57297 -1.280633,0.44439 -2.5043931,0.94565 -3.7261041,1.44895 -1.467447,0.63166 -3.322194,1.56807 -4.69392,2.62227 -1.007607,0.73138 -1.725339,1.58698 -2.313192,2.49825 -0.277707,0.71965 -0.530733,1.44204 -0.277584,2.22067 0.307455,1.11179 1.07193,1.53805 1.850556,1.94308 1.466955,0.59176 2.94822,1.11199 4.533858,1.11033 1.208445,0.0869 2.4467281,0.14405 3.4235281,0.46264 0.613088,0.22937 0.721888,0.61002 0.740218,1.01781 0.0913,0.7753 -0.13544,1.50515 -0.462634,2.22067 -1.269891,2.51568 -2.5107901,5.03716 -4.0712221,7.49474 -1.064619,1.75803 -1.705632,3.10991 -2.410269,4.86793 -0.436233,1.11423 -0.954606,2.62881 -1.290843,3.73715 -0.225921,0.86 -0.264732,1.48243 -0.135384,2.10558 0.02244,0.82151 0.483939,1.35253 0.968136,1.50301 1.627971,0.14066 3.349803,0.16613 4.874589,0.0925 3.1245271,-0.0282 6.1934871,0.33246 9.3746871,-0.0925 0.711,-0.25811 1.15846,-0.67434 1.57297,-1.11034 0.77046,-1.27967 1.16626,-2.31559 1.59326,-3.49122 0.47566,-1.32545 0.90009,-2.0086 1.36536,-3.05796 0.16158,-0.34037 0.6671,-2.09706 1.75339,-2.0559 1.08629,-0.0412 1.59181,1.71553 1.7534,2.0559 z"
     id="path830"
     inkscape:connector-curvature="0"
     sodipodi:nodetypes="ccccccccccccccccccccccccccccccccccccccccccccccccc" />
</svg>
